<?xml version="1.0" encoding="UTF-8"?>
<svg id="Camada_1" xmlns="http://www.w3.org/2000/svg" xmlns:xlink="http://www.w3.org/1999/xlink" version="1.1" viewBox="0 0 268.46 110.46">
  <!-- Generator: Adobe Illustrator 30.0.0, SVG Export Plug-In . SVG Version: 2.1.1 Build 123)  -->
  <defs>
    <style>
      .st0, .st1 {
        fill: none;
      }

      .st2 {
        filter: url(#drop-shadow-1);
      }

      .st3 {
        fill: #1d1d1b;
      }

      .st4 {
        fill: #1d1d1b;
      }

      .st5 {
        fill: #1d1d1b;
      }

      .st6 {
        fill: #312782;
      }

      .st7 {
        fill: #ffcd00;
      }

      .st8 {
        fill: #1d1d1b;
      }

      .st9 {
        clip-path: url(#clippath-17);
      }

      .st10 {
        clip-path: url(#clippath-19);
      }

      .st11 {
        clip-path: url(#clippath-11);
      }

      .st12 {
        clip-path: url(#clippath-16);
      }

      .st13 {
        clip-path: url(#clippath-18);
      }

      .st14 {
        clip-path: url(#clippath-10);
      }

      .st15 {
        clip-path: url(#clippath-15);
      }

      .st16 {
        clip-path: url(#clippath-13);
      }

      .st17 {
        clip-path: url(#clippath-14);
      }

      .st18 {
        clip-path: url(#clippath-12);
      }

      .st19 {
        clip-path: url(#clippath-1);
      }

      .st20 {
        clip-path: url(#clippath-3);
      }

      .st21 {
        clip-path: url(#clippath-4);
      }

      .st22 {
        clip-path: url(#clippath-2);
      }

      .st23 {
        clip-path: url(#clippath-7);
      }

      .st24 {
        clip-path: url(#clippath-6);
      }

      .st25 {
        clip-path: url(#clippath-9);
      }

      .st26 {
        clip-path: url(#clippath-8);
      }

      .st27 {
        clip-path: url(#clippath-5);
      }

      .st1 {
        clip-rule: evenodd;
      }

      .st28 {
        clip-path: url(#clippath);
      }
    </style>
    <clipPath id="clippath">
      <path class="st1" d="M4.65,106.97c.73-1.49,1.47-2.99,2.2-4.48.73-1.49,1.47-2.99,2.2-4.48.73-1.49,1.47-2.99,2.2-4.48.73-1.49,1.47-2.99,2.2-4.48.73-1.49,1.47-2.99,2.2-4.48.73-1.49,1.47-2.99,2.2-4.48.73-1.49,1.47-2.99,2.2-4.48.73-1.49,1.47-2.99,2.2-4.48s1.47-2.99,2.2-4.48c.73-1.49,1.47-2.99,2.2-4.48.73-1.49,1.47-2.99,2.2-4.48s1.47-2.99,2.2-4.48c.73-1.49,1.47-2.99,2.2-4.48.73-1.49,1.47-2.99,2.2-4.48.73-1.49,1.47-2.99,2.2-4.48.73-1.49,1.47-2.99,2.2-4.48.73-1.49,1.47-2.99,2.2-4.48.73-1.49,1.47-2.99,2.2-4.48,1.12-2.28,2.25-4.57,3.37-6.85,1.12-2.28,2.25-4.57,3.37-6.85,1.12-2.28,2.25-4.57,3.37-6.85.33-.67.66-1.34.99-2.02h209.39v103.23H4.65"/>
    </clipPath>
    <clipPath id="clippath-1">
      <rect class="st0" x="4.65" y="3.74" width="260.11" height="103.23"/>
    </clipPath>
    <clipPath id="clippath-2">
      <rect class="st0" x="4.65" y="3.74" width="260.11" height="103.23"/>
    </clipPath>
    <clipPath id="clippath-3">
      <path class="st1" d="M263.3,5.32v100.07H7.14L56.25,5.32h207.05ZM266.23,108.55V2.16H54.48L2.23,108.55h264Z"/>
    </clipPath>
    <clipPath id="clippath-4">
      <path class="st1" d="M14.26,101.2c.04-.09.09-.18.13-.27.04-.09.09-.18.13-.27.04-.09.09-.18.13-.27.04-.09.09-.18.13-.27.04-.09.09-.18.13-.27.04-.09.09-.18.13-.27.04-.09.09-.18.13-.27.04-.09.09-.18.13-.27.04-.09.09-.18.13-.27.04-.09.09-.18.13-.27.04-.09.09-.18.13-.27.04-.09.09-.18.13-.27.04-.09.09-.18.13-.27.04-.09.09-.18.13-.27.04-.09.09-.18.13-.27.04-.09.09-.18.13-.27.04-.09.09-.18.13-.27.04-.09.09-.18.13-.27.08-.16.16-.32.23-.48.08-.16.16-.32.23-.48.06-.12.11-.23.17-.35h240.56v6.09H14.26"/>
    </clipPath>
    <clipPath id="clippath-5">
      <rect class="st0" x="14.26" y="95.12" width="243.52" height="6.09"/>
    </clipPath>
    <clipPath id="clippath-6">
      <rect class="st0" x="14.26" y="95.12" width="243.52" height="6.09"/>
    </clipPath>
    <clipPath id="clippath-7">
      <path class="st1" d="M18.02,93.44c.04-.09.09-.17.13-.26.04-.09.09-.17.13-.26.04-.09.09-.17.13-.26.04-.09.09-.17.13-.26.04-.09.08-.17.13-.26.04-.09.09-.17.13-.26.04-.09.08-.17.13-.26.04-.09.09-.17.13-.26.04-.09.08-.17.13-.26.04-.09.08-.17.13-.26.04-.09.09-.17.13-.26.04-.09.09-.17.13-.26.04-.09.09-.17.13-.26.04-.09.09-.17.13-.26.04-.09.09-.17.13-.26.04-.09.09-.17.13-.26.04-.09.09-.17.13-.26.04-.09.09-.17.13-.26.08-.16.15-.32.23-.47.08-.16.15-.32.23-.47.06-.12.12-.24.17-.35h236.91v6H18.02"/>
    </clipPath>
    <clipPath id="clippath-8">
      <rect class="st0" x="18.02" y="87.45" width="239.84" height="6"/>
    </clipPath>
    <clipPath id="clippath-9">
      <rect class="st0" x="18.02" y="87.45" width="239.84" height="6"/>
    </clipPath>
    <clipPath id="clippath-10">
      <path class="st1" d="M21.97,85.16c.04-.09.09-.18.13-.27.04-.09.09-.18.13-.27.04-.09.09-.18.13-.27.04-.09.09-.18.13-.27.04-.09.09-.18.13-.27.04-.09.09-.18.13-.27.04-.09.09-.18.13-.27.04-.09.09-.18.13-.27.04-.09.09-.18.13-.27.04-.09.09-.18.13-.27.04-.09.09-.18.13-.27.04-.09.09-.18.13-.27.04-.09.09-.18.13-.27.04-.09.09-.18.13-.27.04-.09.09-.18.13-.27.04-.09.09-.18.13-.27.04-.09.09-.18.13-.27.04-.09.09-.18.13-.27.08-.16.15-.32.23-.48.08-.16.15-.32.23-.48.05-.11.11-.22.16-.34h232.87v6.09H21.97"/>
    </clipPath>
    <clipPath id="clippath-11">
      <rect class="st0" x="21.97" y="79.07" width="235.8" height="6.09"/>
    </clipPath>
    <clipPath id="clippath-12">
      <rect class="st0" x="21.97" y="79.07" width="235.8" height="6.09"/>
    </clipPath>
    <clipPath id="clippath-13">
      <rect class="st0" x="73.31" y="15.95" width="174.69" height="57.47"/>
    </clipPath>
    <clipPath id="clippath-14">
      <rect class="st0" x="73.31" y="15.95" width="174.69" height="57.47"/>
    </clipPath>
    <clipPath id="clippath-15">
      <polygon class="st1" points="75.27 17.72 83.55 30.15 83.55 58.04 75.27 69.9 103 69.9 94.56 58.2 94.56 30.15 103 17.72 75.27 17.72"/>
    </clipPath>
    <clipPath id="clippath-16">
      <polygon class="st1" points="154.67 17.72 154.59 17.65 149.74 42.39 140.8 17.72 119.15 17.72 127.52 30.15 127.52 58.04 119.15 69.9 140.8 69.9 133.32 58.2 133.32 30.15 135.66 30.15 144.47 69.9 149.74 69.9 159.29 30.15 160.98 30.15 161.56 58.04 153.21 69.9 181.02 69.9 172.5 58.2 172.5 30.15 181.02 17.72 154.67 17.72"/>
    </clipPath>
    <clipPath id="clippath-17">
      <path class="st1" d="M228.58,49.19l.21.09h.23l.94.3.23.16.21.09.45.32.15.14.21.16.15.16.21.16.15.25.15.14.45.73.06.23.15.23.45,1.51v.55l.09.32v.39l-.09.32v.55l-.45,1.58-.15.25-.06.23-.15.23-.15.16-.15.25-.15.14-.15.25-.21.16-.15.16-.21.16-.15.14-.66.48-1.4.48h-13.94v-11.46h13.73ZM214.85,37.81v-10.43h12.26l.21.07h.51l.23.09h.21l.45.16.15.07.21.16.21.07.23.16.15.09.15.16.21.16.6.62.13.25.15.16.15.23.09.23.15.16.36,1.19v.48l.06.23v.94l-.06.25v.48l-.36,1.17-.15.16-.09.25-.15.23-.15.16-.13.23-.6.64-.21.16-.15.16-.15.07-.23.16-.21.09-.21.14-.15.09-.45.16h-.21l-.23.07h-.51l-.21.09h-12.26ZM242.16,23.9l-1.4-1.9-.57-.48-.53-.55-1.83-1.19-2.78-1.19-3.08-.62-4.19-.32-33.11.07,10.14,12.43v27.9l-10.14,11.85h33.91l2.93-.16,1.83-.23,2.57-.48,2.93-1.03.6-.39.66-.32,1.61-1.26.89-1.12.72-1.17.59-1.35.21-.8.45-2.45.15-2.52-.08-1.51-.15-1.35-.66-2.45-1.17-2.52-.6-.87-1.32-1.58-4.04-3.41.51-.16,1.85-.94.81-.55,1.1-.96.93-.94.3-.39.89-1.6.57-1.33.09-.48.3-1.03.15-1.03v-1.03l.06-.55-.06-.64v-1.17l-.68-3.02-1.02-2.52-.36-.71Z"/>
    </clipPath>
    <clipPath id="clippath-18">
      <polygon class="st0" points="52.31 79.36 20.02 79.12 56.5 5.16 72.03 5.41 75.48 78.62 52.31 79.36"/>
    </clipPath>
    <filter id="drop-shadow-1" x="25.09" y="10.97" width="36.96" height="66.24" filterUnits="userSpaceOnUse">
      <feOffset dx="0" dy="0"/>
      <feGaussianBlur result="blur" stdDeviation="1.4"/>
      <feFlood flood-color="#1d1d1b" flood-opacity=".75"/>
      <feComposite in2="blur" operator="in"/>
      <feComposite in="SourceGraphic"/>
    </filter>
    <clipPath id="clippath-19">
      <polygon class="st1" points="57.8 72.83 57.8 15.2 29.3 72.83 57.8 72.83"/>
    </clipPath>
  </defs>
  <g class="st28">
    <g class="st19">
      <g class="st22">
      </g>
    </g>
  </g>
  <g class="st20">
    <rect class="st7" x="2.23" y="2.16" width="264" height="106.39"/>
  </g>
  <g class="st21">
    <g class="st27">
      <g class="st24">
      </g>
    </g>
  </g>
  <g class="st23">
    <g class="st26">
      <g class="st25">
      </g>
    </g>
  </g>
  <g class="st14">
    <g class="st11">
      <g class="st18">
      </g>
    </g>
  </g>
  <g class="st16">
    <g class="st17">
    </g>
  </g>
  <g class="st15">
    <rect class="st5" x="75.27" y="17.72" width="27.73" height="52.17"/>
  </g>
  <g class="st12">
    <rect class="st3" x="119.15" y="17.65" width="61.88" height="52.24"/>
  </g>
  <g class="st9">
    <rect class="st4" x="194.66" y="17.65" width="50.06" height="52.24"/>
  </g>
  <path class="st8" d="M254.57,13.69h1.04c.49,0,.83-.08,1.01-.24.18-.16.27-.37.27-.63,0-.17-.04-.32-.13-.45-.09-.13-.21-.23-.36-.3-.16-.07-.44-.1-.86-.1h-.97v1.72ZM253.72,16.9v-5.7h1.82c.62,0,1.07.05,1.35.16.28.11.5.29.66.55.16.26.25.54.25.84,0,.42-.14.78-.41,1.09-.28.31-.64.48-1.1.52.19.08.34.18.45.3.21.23.47.6.78,1.13l.65,1.11h-1.04l-.47-.9c-.37-.7-.67-1.15-.89-1.32-.16-.13-.38-.2-.69-.2h-.5v2.42h-.85ZM255.88,9.55c-.69,0-1.36.19-2.02.57-.65.38-1.17.93-1.53,1.63-.37.71-.55,1.45-.55,2.22s.18,1.49.54,2.19c.36.7.87,1.25,1.52,1.64.65.39,1.33.59,2.04.59s1.39-.2,2.04-.59c.65-.39,1.16-.94,1.52-1.64.36-.7.54-1.43.54-2.19s-.18-1.51-.55-2.22c-.37-.71-.88-1.25-1.53-1.63-.66-.38-1.33-.57-2.01-.57ZM255.88,8.68c.83,0,1.63.23,2.42.68.79.46,1.4,1.11,1.84,1.96.44.85.66,1.73.66,2.66s-.22,1.79-.65,2.63c-.43.84-1.04,1.5-1.82,1.96-.78.47-1.59.7-2.45.7s-1.67-.23-2.45-.7c-.78-.46-1.39-1.12-1.82-1.96-.44-.84-.65-1.72-.65-2.63s.22-1.81.66-2.66c.44-.85,1.05-1.5,1.84-1.96.79-.46,1.59-.68,2.42-.68Z"/>
  <polygon class="st0" points="3.5 108.2 55.27 2.45 266.23 2.16 266.23 108.55 3.5 108.2"/>
  <g class="st13">
    <g class="st2">
      <g class="st10">
        <rect class="st6" x="29.3" y="15.2" width="28.5" height="57.62"/>
      </g>
    </g>
  </g>
</svg>
