<?xml version="1.0" encoding="UTF-8"?>
<svg id="Camada_1" data-name="Camada 1" xmlns="http://www.w3.org/2000/svg" viewBox="0 0 806.51 501.33">
  <defs>
    <style>
      .cls-1 {
        fill: #fff;
      }

      .cls-2 {
        fill: #c30a49;
      }

      .cls-3 {
        fill: #083864;
      }
    </style>
  </defs>
  <rect class="cls-2" width="806.51" height="501.33"/>
  <rect class="cls-1" x="0" y="52.08" width="806.51" height="51.93"/>
  <rect class="cls-1" x="0" y="235.81" width="806.51" height="51.93"/>
  <rect class="cls-1" x="0" y="327.68" width="806.51" height="51.93"/>
  <rect class="cls-1" x="0" y="416.89" width="806.51" height="51.93"/>
  <rect class="cls-1" x="0" y="139.97" width="806.51" height="51.93"/>
  <rect class="cls-3" width="362.25" height="236.41"/>
  <polygon class="cls-1" points="36.87 18.22 41.04 31.06 54.54 31.06 43.62 39 47.79 51.84 36.87 43.91 25.94 51.84 30.11 39 19.19 31.06 32.69 31.06 36.87 18.22"/>
  <polygon class="cls-1" points="36.87 69.1 41.04 81.94 54.54 81.94 43.62 89.88 47.79 102.72 36.87 94.79 25.94 102.72 30.11 89.88 19.19 81.94 32.69 81.94 36.87 69.1"/>
  <polygon class="cls-1" points="36.87 120.43 41.04 133.27 54.54 133.27 43.62 141.21 47.79 154.05 36.87 146.11 25.94 154.05 30.11 141.21 19.19 133.27 32.69 133.27 36.87 120.43"/>
  <polygon class="cls-1" points="36.87 177.76 41.04 190.61 54.54 190.61 43.62 198.55 47.79 211.39 36.87 203.45 25.94 211.39 30.11 198.55 19.19 190.61 32.69 190.61 36.87 177.76"/>
  <polygon class="cls-1" points="317.68 18.22 321.86 31.06 335.36 31.06 324.43 39 328.61 51.84 317.68 43.91 306.76 51.84 310.93 39 300.01 31.06 313.51 31.06 317.68 18.22"/>
  <polygon class="cls-1" points="317.68 69.1 321.86 81.94 335.36 81.94 324.43 89.88 328.61 102.72 317.68 94.79 306.76 102.72 310.93 89.88 300.01 81.94 313.51 81.94 317.68 69.1"/>
  <polygon class="cls-1" points="317.68 120.43 321.86 133.27 335.36 133.27 324.43 141.21 328.61 154.05 317.68 146.11 306.76 154.05 310.93 141.21 300.01 133.27 313.51 133.27 317.68 120.43"/>
  <polygon class="cls-1" points="317.68 177.76 321.86 190.61 335.36 190.61 324.43 198.55 328.61 211.39 317.68 203.45 306.76 211.39 310.93 198.55 300.01 190.61 313.51 190.61 317.68 177.76"/>
  <polygon class="cls-1" points="177.66 18.22 181.84 31.06 195.34 31.06 184.42 39 188.59 51.84 177.66 43.91 166.74 51.84 170.91 39 159.99 31.06 173.49 31.06 177.66 18.22"/>
  <polygon class="cls-1" points="177.66 69.1 181.84 81.94 195.34 81.94 184.42 89.88 188.59 102.72 177.66 94.79 166.74 102.72 170.91 89.88 159.99 81.94 173.49 81.94 177.66 69.1"/>
  <polygon class="cls-1" points="177.66 120.43 181.84 133.27 195.34 133.27 184.42 141.21 188.59 154.05 177.66 146.11 166.74 154.05 170.91 141.21 159.99 133.27 173.49 133.27 177.66 120.43"/>
  <polygon class="cls-1" points="177.66 177.76 181.84 190.61 195.34 190.61 184.42 198.55 188.59 211.39 177.66 203.45 166.74 211.39 170.91 198.55 159.99 190.61 173.49 190.61 177.66 177.76"/>
  <polygon class="cls-1" points="107.99 28.84 112.16 41.68 125.66 41.68 114.74 49.62 118.91 62.46 107.99 54.52 97.06 62.46 101.24 49.62 90.31 41.68 103.81 41.68 107.99 28.84"/>
  <polygon class="cls-1" points="107.99 79.72 112.16 92.56 125.66 92.56 114.74 100.5 118.91 113.34 107.99 105.4 97.06 113.34 101.24 100.5 90.31 92.56 103.81 92.56 107.99 79.72"/>
  <polygon class="cls-1" points="107.99 131.04 112.16 143.89 125.66 143.89 114.74 151.82 118.91 164.67 107.99 156.73 97.06 164.67 101.24 151.82 90.31 143.89 103.81 143.89 107.99 131.04"/>
  <polygon class="cls-1" points="107.99 188.38 112.16 201.23 125.66 201.23 114.74 209.16 118.91 222.01 107.99 214.07 97.06 222.01 101.24 209.16 90.31 201.23 103.81 201.23 107.99 188.38"/>
  <polygon class="cls-1" points="249.33 28.84 253.51 41.68 267.01 41.68 256.08 49.62 260.26 62.46 249.33 54.52 238.41 62.46 242.58 49.62 231.66 41.68 245.16 41.68 249.33 28.84"/>
  <polygon class="cls-1" points="249.33 79.72 253.51 92.56 267.01 92.56 256.08 100.5 260.26 113.34 249.33 105.4 238.41 113.34 242.58 100.5 231.66 92.56 245.16 92.56 249.33 79.72"/>
  <polygon class="cls-1" points="249.33 131.04 253.51 143.89 267.01 143.89 256.08 151.82 260.26 164.67 249.33 156.73 238.41 164.67 242.58 151.82 231.66 143.89 245.16 143.89 249.33 131.04"/>
  <polygon class="cls-1" points="249.33 188.38 253.51 201.23 267.01 201.23 256.08 209.16 260.26 222.01 249.33 214.07 238.41 222.01 242.58 209.16 231.66 201.23 245.16 201.23 249.33 188.38"/>
</svg>